<svg width="252" height="252" viewBox="0 0 252 252" fill="none" xmlns="http://www.w3.org/2000/svg">
<path d="M126 248C93.6436 248 62.6124 235.146 39.733 212.267C16.8535 189.388 4 158.356 4 126C4 93.6436 16.8535 62.6124 39.733 39.733C62.6124 16.8535 93.6436 4 126 4" stroke="white" style="stroke:white;stroke-opacity:1;" stroke-width="8"/>
<path d="M126 226C109.555 226 93.3636 221.944 78.8603 214.192C64.357 206.44 51.9894 195.231 42.853 181.557C33.7166 167.883 28.0934 152.168 26.4815 135.802C24.8696 119.436 27.3188 102.925 33.612 87.7317C39.9053 72.5384 49.8484 59.1316 62.5607 48.699C75.2729 38.2663 90.3618 31.1298 106.491 27.9215C122.62 24.7132 139.291 25.5322 155.028 30.306C170.765 35.0797 185.082 43.6609 196.711 55.2893" stroke="white" style="stroke:white;stroke-opacity:1;" stroke-width="8"/>
<path d="M126 203C111.893 203 98.0562 199.124 86.0014 191.796C73.9467 184.468 64.1369 173.968 57.6429 161.444C51.149 148.921 48.2206 134.853 49.1773 120.778C50.134 106.703 54.9391 93.1615 63.068 81.6315C71.197 70.1015 82.3373 61.0263 95.2728 55.3966C108.208 49.7669 122.442 47.7992 136.42 49.7082C150.397 51.6173 163.582 57.3297 174.534 66.2218C185.486 75.1139 193.785 86.844 198.525 100.132" stroke="white" style="stroke:white;stroke-opacity:1;" stroke-width="8"/>
<path d="M120.606 108.351C117.412 107.775 114.451 106.298 112.07 104.094C109.689 101.889 107.989 99.0496 107.17 95.91C106.352 92.7704 106.448 89.4621 107.449 86.3757C108.45 83.2894 110.314 80.5539 112.819 78.4924C115.325 76.431 118.368 75.1296 121.589 74.7419C124.81 74.3543 128.075 74.8966 130.999 76.3048C133.922 77.713 136.381 79.9283 138.085 82.6891C139.79 85.4499 140.669 88.6408 140.618 91.885" stroke="white" style="stroke:white;stroke-opacity:1;" stroke-width="4"/>
<path d="M107.497 145.523C107.296 148.762 106.173 151.875 104.259 154.495C102.346 157.116 99.7225 159.134 96.6991 160.311C93.6757 161.489 90.3785 161.776 87.1969 161.14C84.0153 160.504 81.0821 158.971 78.7438 156.722C76.4056 154.472 74.7599 151.601 74.0011 148.446C73.2423 145.291 73.4022 141.985 74.4617 138.919C75.5213 135.852 77.4363 133.153 79.9807 131.139C82.5251 129.126 85.5924 127.883 88.8206 127.556" stroke="white" style="stroke:white;stroke-opacity:1;" stroke-width="4"/>
<path d="M149.128 131.241C151.653 129.203 154.708 127.931 157.933 127.574C161.158 127.216 164.417 127.79 167.327 129.225C170.237 130.661 172.675 132.9 174.353 135.677C176.031 138.453 176.88 141.652 176.799 144.896C176.718 148.14 175.71 151.292 173.894 153.981C172.079 156.671 169.532 158.784 166.554 160.073C163.577 161.361 160.292 161.77 157.089 161.252C153.886 160.734 150.898 159.31 148.479 157.148" stroke="white" style="stroke:white;stroke-opacity:1;" stroke-width="4"/>
</svg>
